<?xml version="1.0" encoding="UTF-8" ?>
<!DOCTYPE svg PUBLIC "-//W3C//DTD SVG 1.1//EN" "http://www.w3.org/Graphics/SVG/1.1/DTD/svg11.dtd">
<svg width="40pt" height="32pt" viewBox="0 0 40 32" version="1.1" xmlns="http://www.w3.org/2000/svg">
<g id="#e5ecf3ff">
<path fill="#e5ecf3" opacity="1.00" d=" M 15.12 0.00 L 26.66 0.00 C 24.76 3.61 21.97 6.62 19.61 9.92 C 21.87 16.93 24.49 23.84 26.47 30.95 C 23.44 31.03 20.42 31.01 17.39 30.89 C 15.94 25.90 14.37 20.93 12.77 15.98 C 11.46 17.67 9.99 19.27 9.00 21.18 C 8.52 24.39 8.86 27.67 8.75 30.91 C 5.94 30.99 3.13 31.01 0.32 30.98 C 0.15 20.70 0.21 10.42 0.29 0.14 C 3.10 0.10 5.90 0.10 8.71 0.14 C 8.77 2.88 8.78 5.63 8.83 8.37 C 11.21 5.60 13.62 2.85 15.97 0.05 L 15.12 0.00 Z" />
<path fill="#e5ecf3" opacity="1.00" d=" M 28.11 0.00 L 40.00 0.00 L 40.00 30.51 C 36.16 31.47 32.17 30.82 28.26 30.97 C 30.21 23.86 32.81 16.95 35.11 9.95 C 32.84 6.59 29.86 3.70 28.11 0.00 Z" />
</g>
</svg>
