<?xml version="1.0" encoding="UTF-8" ?>
<!DOCTYPE svg PUBLIC "-//W3C//DTD SVG 1.1//EN" "http://www.w3.org/Graphics/SVG/1.1/DTD/svg11.dtd">
<svg width="798pt" height="680pt" viewBox="0 0 798 680" version="1.1" xmlns="http://www.w3.org/2000/svg">
<g id="#24b8ebff">
<path fill="#24b8eb" opacity="1.00" d=" M 11.58 227.63 C 140.66 151.83 269.76 76.05 398.83 0.23 C 512.02 66.69 625.20 133.15 738.39 199.61 C 757.66 210.79 776.70 222.38 796.12 233.30 C 795.72 234.83 795.42 236.39 795.47 237.98 C 795.50 302.73 795.47 367.47 795.48 432.22 C 666.27 512.43 537.02 592.58 407.80 672.77 C 404.92 674.63 401.73 676.11 399.34 678.63 C 399.00 678.62 398.33 678.60 397.99 678.59 C 397.36 677.65 396.59 676.88 395.69 676.25 C 264.54 597.77 133.35 519.34 2.21 440.85 C 2.20 375.55 2.21 310.26 2.21 244.96 C 2.15 241.06 2.56 237.09 1.58 233.26 C 5.04 231.61 8.27 229.55 11.58 227.63 M 5.00 233.80 C 136.27 310.94 267.58 387.99 398.86 465.09 C 530.12 387.97 661.42 310.93 792.69 233.82 C 661.41 156.73 530.12 79.64 398.84 2.56 C 267.56 79.64 136.29 156.74 5.00 233.80 M 4.21 236.15 C 4.22 304.01 4.17 371.88 4.23 439.74 C 135.38 518.19 266.52 596.63 397.65 675.09 C 397.62 605.80 397.66 536.50 397.63 467.21 C 266.53 390.11 135.34 313.19 4.21 236.15 M 399.67 467.36 C 399.61 536.72 399.65 606.08 399.65 675.45 C 530.94 594.03 662.21 512.56 793.48 431.11 C 793.48 366.13 793.49 301.15 793.48 236.17 C 662.20 313.21 530.97 390.34 399.67 467.36 Z" />
<path fill="#24b8eb" opacity="1.00" d=" M 47.83 233.85 C 164.79 165.04 281.94 96.52 398.85 27.60 C 515.77 96.58 632.97 165.09 750.07 233.76 C 634.14 302.02 517.97 369.87 402.06 438.14 C 400.19 439.24 397.90 440.80 395.94 438.99 C 322.90 396.03 249.75 353.24 176.75 310.21 C 133.96 284.46 90.79 259.33 47.83 233.85 M 52.84 234.02 C 94.93 259.06 137.04 284.08 179.15 309.12 C 197.92 298.07 216.78 287.15 235.48 275.97 C 235.45 276.73 235.40 278.25 235.37 279.02 L 235.01 278.75 C 216.98 289.32 198.97 299.91 180.96 310.48 C 253.28 352.75 325.41 395.35 397.72 437.64 C 469.95 395.13 542.27 352.75 614.53 310.29 C 596.15 299.47 577.75 288.67 559.34 277.89 C 560.00 277.53 561.31 276.82 561.97 276.47 C 580.25 287.59 598.88 298.16 617.26 309.12 C 660.14 284.03 702.91 258.76 745.75 233.60 C 630.54 166.52 515.28 99.51 400.06 32.44 C 400.02 54.52 400.10 76.60 400.02 98.68 C 399.54 98.64 398.57 98.57 398.09 98.54 C 397.98 76.13 398.09 53.73 398.03 31.32 C 282.96 98.87 167.90 166.44 52.84 234.02 Z" />
</g>
<g id="#ffffffff">
<path fill="#ffffff" opacity="1.00" d=" M 5.00 233.80 C 136.29 156.74 267.56 79.64 398.84 2.56 C 530.12 79.64 661.41 156.73 792.69 233.82 C 661.42 310.93 530.12 387.97 398.86 465.09 C 267.58 387.99 136.27 310.94 5.00 233.80 M 47.83 233.85 C 90.79 259.33 133.96 284.46 176.75 310.21 C 249.75 353.24 322.90 396.03 395.94 438.99 C 397.90 440.80 400.19 439.24 402.06 438.14 C 517.97 369.87 634.14 302.02 750.07 233.76 C 632.97 165.09 515.77 96.58 398.85 27.60 C 281.94 96.52 164.79 165.04 47.83 233.85 Z" />
<path fill="#ffffff" opacity="1.00" d=" M 52.84 234.02 C 167.90 166.44 282.96 98.87 398.03 31.32 C 398.09 53.73 397.98 76.13 398.09 98.54 C 343.93 130.47 289.56 162.06 235.47 194.10 C 235.53 221.39 235.56 248.68 235.48 275.97 C 216.78 287.15 197.92 298.07 179.15 309.12 C 137.04 284.08 94.93 259.06 52.84 234.02 Z" />
<path fill="#ffffff" opacity="1.00" d=" M 400.06 32.44 C 515.28 99.51 630.54 166.52 745.75 233.60 C 702.91 258.76 660.14 284.03 617.26 309.12 C 598.88 298.16 580.25 287.59 561.97 276.47 C 562.42 271.66 562.47 266.83 562.39 262.00 C 562.33 239.30 562.45 216.59 562.35 193.88 C 508.19 162.24 454.11 130.43 400.02 98.68 C 400.10 76.60 400.02 54.52 400.06 32.44 Z" />
<path fill="#ffffff" opacity="1.00" d=" M 239.08 194.26 C 292.38 163.03 345.59 131.62 398.98 100.54 C 447.91 129.10 496.71 157.88 545.60 186.49 C 549.90 189.09 554.47 191.30 558.35 194.53 C 505.29 225.82 452.12 256.92 398.98 288.07 C 345.61 256.92 292.32 225.62 239.08 194.26 M 393.21 148.43 C 393.12 152.54 393.04 156.65 392.94 160.76 C 384.86 160.83 376.78 160.64 368.70 160.84 C 368.57 164.85 368.55 168.86 368.63 172.87 C 364.52 172.98 360.40 173.06 356.29 173.13 C 356.39 177.29 356.33 181.46 356.04 185.61 C 352.67 185.57 349.30 185.62 345.93 185.75 C 344.63 195.63 346.27 206.41 352.73 214.30 C 359.22 222.74 369.45 227.77 379.95 228.84 C 394.53 230.21 409.71 227.76 422.62 220.66 C 434.76 214.14 443.84 203.00 449.29 190.48 C 453.67 190.00 458.32 189.59 462.04 186.98 C 465.36 184.88 467.25 181.34 469.02 177.96 C 464.23 174.34 458.20 173.73 452.39 173.88 C 450.28 168.44 446.45 163.96 441.79 160.52 C 434.95 166.18 435.03 176.00 437.89 183.70 C 433.12 185.13 428.16 185.78 423.19 185.71 C 423.10 181.49 423.06 177.27 423.02 173.05 C 418.99 173.01 414.96 172.99 410.93 172.96 C 410.64 164.80 411.04 156.63 410.69 148.47 C 404.86 148.41 399.03 148.44 393.21 148.43 Z" />
<path fill="#ffffff" opacity="1.00" d=" M 396.23 151.46 C 400.06 151.45 403.89 151.46 407.72 151.47 C 407.94 159.64 407.64 167.81 407.88 175.98 C 411.91 176.05 415.94 176.09 419.97 176.09 C 420.02 180.28 420.07 184.48 420.17 188.68 C 427.51 188.79 435.44 188.83 441.85 184.71 C 441.43 181.38 439.10 178.54 439.05 175.11 C 438.63 171.36 439.99 167.77 441.83 164.58 C 446.27 167.71 448.85 172.59 450.11 177.78 C 455.14 176.84 460.50 176.50 465.14 179.07 C 463.48 181.43 461.76 183.94 459.06 185.20 C 455.46 187.17 451.25 187.10 447.28 187.42 C 443.39 196.48 438.12 205.14 430.47 211.52 C 418.08 222.29 401.23 226.55 385.08 226.17 C 375.31 225.99 365.25 222.82 358.19 215.84 C 350.75 209.05 347.79 198.60 348.69 188.77 C 352.14 188.66 355.59 188.62 359.05 188.65 C 359.38 184.49 359.43 180.31 359.34 176.14 C 363.44 176.11 367.54 176.04 371.64 175.92 C 371.57 171.90 371.61 167.89 371.74 163.88 C 379.82 163.65 387.90 163.88 395.98 163.79 C 396.08 159.68 396.15 155.57 396.23 151.46 M 369.40 198.44 C 364.82 200.39 363.69 207.18 367.76 210.25 C 371.56 213.95 378.55 211.15 379.15 206.00 C 380.16 200.80 374.20 196.09 369.40 198.44 Z" />
<path fill="#ffffff" opacity="1.00" d=" M 237.49 197.87 C 241.80 199.51 245.64 202.11 249.60 204.44 C 296.23 231.76 342.81 259.14 389.44 286.46 C 391.98 287.98 394.74 289.24 396.95 291.25 C 397.55 293.08 397.40 295.05 397.46 296.96 C 397.20 322.48 397.64 348.00 397.23 373.52 C 386.54 367.88 376.42 361.20 365.95 355.14 C 323.13 329.57 280.30 304.00 237.54 278.33 C 237.41 251.51 237.49 224.69 237.49 197.87 Z" />
<path fill="#ffffff" opacity="1.00" d=" M 552.17 202.13 C 554.78 200.44 557.52 198.94 560.45 197.86 C 560.39 223.46 560.40 249.06 560.45 274.66 C 507.21 307.89 453.80 340.88 400.45 373.94 C 400.41 346.39 400.41 318.84 400.44 291.30 C 450.89 261.37 501.63 231.92 552.17 202.13 Z" />
<path fill="#ffffff" opacity="1.00" d=" M 370.36 201.36 C 373.22 199.72 377.04 202.74 376.05 205.91 C 375.48 208.56 372.03 209.78 369.90 208.11 C 367.46 206.55 367.92 202.68 370.36 201.36 Z" />
<path fill="#ffffff" opacity="1.00" d=" M 4.21 236.15 C 135.34 313.19 266.53 390.11 397.63 467.21 C 397.66 536.50 397.62 605.80 397.65 675.09 C 266.52 596.63 135.38 518.19 4.23 439.74 C 4.17 371.88 4.22 304.01 4.21 236.15 Z" />
<path fill="#ffffff" opacity="1.00" d=" M 399.67 467.36 C 530.97 390.34 662.20 313.21 793.48 236.17 C 793.49 301.15 793.48 366.13 793.48 431.11 C 662.21 512.56 530.94 594.03 399.65 675.45 C 399.65 606.08 399.61 536.72 399.67 467.36 Z" />
<path fill="#ffffff" opacity="1.00" d=" M 399.01 377.16 C 452.57 344.27 505.86 310.91 559.34 277.89 C 577.75 288.67 596.15 299.47 614.53 310.29 C 542.27 352.75 469.95 395.13 397.72 437.64 C 325.41 395.35 253.28 352.75 180.96 310.48 C 198.97 299.91 216.98 289.32 235.01 278.75 L 235.37 279.02 C 241.89 283.90 249.21 287.56 256.09 291.89 C 303.77 320.24 351.23 348.98 399.01 377.16 Z" />
</g>
<g id="#e0e6edff">
<path fill="#e0e6ed" opacity="1.00" d=" M 398.09 98.54 C 398.57 98.57 399.54 98.64 400.02 98.68 C 454.11 130.43 508.19 162.24 562.35 193.88 C 562.45 216.59 562.33 239.30 562.39 262.00 C 562.47 266.83 562.42 271.66 561.97 276.47 C 561.31 276.82 560.00 277.53 559.34 277.89 C 505.86 310.91 452.57 344.27 399.01 377.16 C 351.23 348.98 303.77 320.24 256.09 291.89 C 249.21 287.56 241.89 283.90 235.37 279.02 C 235.40 278.25 235.45 276.73 235.48 275.97 C 235.56 248.68 235.53 221.39 235.47 194.10 C 289.56 162.06 343.93 130.47 398.09 98.54 M 239.08 194.26 C 292.32 225.62 345.61 256.92 398.98 288.07 C 452.12 256.92 505.29 225.82 558.35 194.53 C 554.47 191.30 549.90 189.09 545.60 186.49 C 496.71 157.88 447.91 129.10 398.98 100.54 C 345.59 131.62 292.38 163.03 239.08 194.26 M 237.49 197.87 C 237.49 224.69 237.41 251.51 237.54 278.33 C 280.30 304.00 323.13 329.57 365.95 355.14 C 376.42 361.20 386.54 367.88 397.23 373.52 C 397.64 348.00 397.20 322.48 397.46 296.96 C 397.40 295.05 397.55 293.08 396.95 291.25 C 394.74 289.24 391.98 287.98 389.44 286.46 C 342.81 259.14 296.23 231.76 249.60 204.44 C 245.64 202.11 241.80 199.51 237.49 197.87 M 552.17 202.13 C 501.63 231.92 450.89 261.37 400.44 291.30 C 400.41 318.84 400.41 346.39 400.45 373.94 C 453.80 340.88 507.21 307.89 560.45 274.66 C 560.40 249.06 560.39 223.46 560.45 197.86 C 557.52 198.94 554.78 200.44 552.17 202.13 Z" />
</g>
<g id="#dfe6ecff">
<path fill="#dfe6ec" opacity="1.00" d=" M 393.21 148.43 C 399.03 148.44 404.86 148.41 410.69 148.47 C 411.04 156.63 410.64 164.80 410.93 172.96 C 414.96 172.99 418.99 173.01 423.02 173.05 C 423.06 177.27 423.10 181.49 423.19 185.71 C 428.16 185.78 433.12 185.13 437.89 183.70 C 435.03 176.00 434.95 166.18 441.79 160.52 C 446.45 163.96 450.28 168.44 452.39 173.88 C 458.20 173.73 464.23 174.34 469.02 177.96 C 467.25 181.34 465.36 184.88 462.04 186.98 C 458.32 189.59 453.67 190.00 449.29 190.48 C 443.84 203.00 434.76 214.14 422.62 220.66 C 409.71 227.76 394.53 230.21 379.95 228.84 C 369.45 227.77 359.22 222.74 352.73 214.30 C 346.27 206.41 344.63 195.63 345.93 185.75 C 349.30 185.62 352.67 185.57 356.04 185.61 C 356.33 181.46 356.39 177.29 356.29 173.13 C 360.40 173.06 364.52 172.98 368.63 172.87 C 368.55 168.86 368.57 164.85 368.70 160.84 C 376.78 160.64 384.86 160.83 392.94 160.76 C 393.04 156.65 393.12 152.54 393.21 148.43 M 396.23 151.46 C 396.15 155.57 396.08 159.68 395.98 163.79 C 387.90 163.88 379.82 163.65 371.74 163.88 C 371.61 167.89 371.57 171.90 371.64 175.92 C 367.54 176.04 363.44 176.11 359.34 176.14 C 359.43 180.31 359.38 184.49 359.05 188.65 C 355.59 188.62 352.14 188.66 348.69 188.77 C 347.79 198.60 350.75 209.05 358.19 215.84 C 365.25 222.82 375.31 225.99 385.08 226.17 C 401.23 226.55 418.08 222.29 430.47 211.52 C 438.12 205.14 443.39 196.48 447.28 187.42 C 451.25 187.10 455.46 187.17 459.06 185.20 C 461.76 183.94 463.48 181.43 465.14 179.07 C 460.50 176.50 455.14 176.84 450.11 177.78 C 448.85 172.59 446.27 167.71 441.83 164.58 C 439.99 167.77 438.63 171.36 439.05 175.11 C 439.10 178.54 441.43 181.38 441.85 184.71 C 435.44 188.83 427.51 188.79 420.17 188.68 C 420.07 184.48 420.02 180.28 419.97 176.09 C 415.94 176.09 411.91 176.05 407.88 175.98 C 407.64 167.81 407.94 159.64 407.72 151.47 C 403.89 151.46 400.06 151.45 396.23 151.46 Z" />
<path fill="#dfe6ec" opacity="1.00" d=" M 369.40 198.44 C 374.20 196.09 380.16 200.80 379.15 206.00 C 378.55 211.15 371.56 213.95 367.76 210.25 C 363.69 207.18 364.82 200.39 369.40 198.44 M 370.36 201.36 C 367.92 202.68 367.46 206.55 369.90 208.11 C 372.03 209.78 375.48 208.56 376.05 205.91 C 377.04 202.74 373.22 199.72 370.36 201.36 Z" />
</g>
</svg>
